<?xml version="1.0" encoding="UTF-8" standalone="no"?>
<svg width="100px" height="78px" viewBox="0 0 100 78" version="1.1" xmlns="http://www.w3.org/2000/svg" xmlns:xlink="http://www.w3.org/1999/xlink" xmlns:sketch="http://www.bohemiancoding.com/sketch/ns">
    <!-- Generator: Sketch 3.0.4 (8053) - http://www.bohemiancoding.com/sketch -->
    <title>photo</title>
    <desc>Created with Sketch.</desc>
    <defs></defs>
    <g id="Page-1" stroke="none" stroke-width="1" fill="none" fill-rule="evenodd" sketch:type="MSPage">
        <g id="photo" sketch:type="MSLayerGroup" fill="#FFFFFF">
            <g id="Page-1" sketch:type="MSShapeGroup">
                <path d="M91.9843682,12.2721996 L75.0282241,12.2721996 L65.5471125,2.4143509 C65.5362571,2.4030899 65.5275727,2.3918289 65.5167173,2.3828202 L65.4993487,2.3648026 L65.4993487,2.3670548 C64.0751194,0.9053816 62.1189752,0 59.9565784,0 L40.2431611,0 C37.9526704,0 35.909683,1.0292522 34.4680851,2.6463268 L34.4594008,2.6215526 L25.1780287,12.2721996 L7.88536691,12.2721996 C3.53017803,12.2721996 0,15.9342654 0,20.4521645 L0,69.5409627 C0,74.0588618 3.53017803,77.7209276 7.88536691,77.7209276 L91.9843682,77.7209276 C96.3395571,77.7209276 99.8697351,74.0588618 99.8697351,69.5409627 L99.8697351,20.4521645 C99.8697351,15.9342654 96.3395571,12.2721996 91.9843682,12.2721996 M49.9348676,65.4487281 C37.9765523,65.4487281 28.2501086,55.3543991 28.2501086,42.947068 C28.2501086,30.5442412 37.9765523,20.4521645 49.9348676,20.4521645 C61.8931828,20.4521645 71.6196266,30.5442412 71.6196266,42.947068 C71.6196266,55.3543991 61.8931828,65.4487281 49.9348676,65.4487281 M49.9348676,25.9069759 C40.8597482,25.9069759 33.5062961,33.5351535 33.5062961,42.947068 C33.5062961,52.3634868 40.8597482,59.9961689 49.9348676,59.9961689 C59.009987,59.9961689 66.363439,52.3634868 66.363439,42.947068 C66.363439,33.5351535 59.009987,25.9069759 49.9348676,25.9069759" id="shape_a"></path>
            </g>
        </g>
    </g>
</svg>