<?xml version="1.0" encoding="UTF-8" standalone="no"?>
<svg width="20px" height="20px" viewBox="0 0 20 20" version="1.1" xmlns="http://www.w3.org/2000/svg" xmlns:xlink="http://www.w3.org/1999/xlink" xmlns:sketch="http://www.bohemiancoding.com/sketch/ns">
    <!-- Generator: Sketch 3.3.3 (12072) - http://www.bohemiancoding.com/sketch -->
    <title>leaderboard_white</title>
    <desc>Created with Sketch.</desc>
    <defs></defs>
    <g id="Page-1" stroke="none" stroke-width="1" fill="none" fill-rule="evenodd" sketch:type="MSPage">
        <g id="leaderboard_white" sketch:type="MSArtboardGroup" fill="#FFFFFF">
            <path d="M20,10.5 L20,16 L0,16 L0,9.06770833 C0.2416,8.51341146 0.670228571,8.34577604 1.25828571,8.35654687 C2.78114286,8.38444792 4.3048,8.36588542 5.82811429,8.36588542 L6.18697143,8.36588542 C6.18697143,7.63146354 6.18697143,6.936 6.18702857,6.24053646 C6.18708571,5.49127604 6.34217143,5.26273958 7.02857143,5 L12.9714286,5 C13.658,5.26251042 13.8129143,5.49081771 13.8129714,6.24047917 C13.8130286,7.31922396 13.8125714,8.39791146 13.8137714,9.47659896 C13.8138857,9.57697396 13.8245143,9.67729167 13.8314286,9.79817708 L14.1716,9.79817708 C15.6949714,9.79817708 17.2187429,9.81673958 18.7416,9.78883854 C19.3296571,9.77806771 19.7584571,9.94553125 20,10.5 L20,10.5 Z M10.9421714,6.40845833 C10.5665714,6.4513125 10.1916571,6.41447396 9.89171429,6.5475625 C9.47171429,6.733875 9.1056,7.0439375 8.72154286,7.30845312 C8.6584,7.3519375 8.58285714,7.43140104 8.57908571,7.49791667 C8.56325714,7.77910417 8.5724,8.06166667 8.5724,8.37871875 L9.53857143,8.37871875 L9.53857143,11.6853073 L10.9421714,11.6853073 L10.9421714,6.40845833 L10.9421714,6.40845833 Z" id="Imported-Layers" sketch:type="MSShapeGroup"></path>
        </g>
    </g>
</svg>